# File created by Blade
# Date/Time:  Thu Sep 25 21:01:51 2014
# Frame Rate: 120.000 fps
#------------------------------------------------------
:FULLY-SPECIFIED
:DEGREES
3468
root -2.722805 14.623698 1.711649 31.498526 -15.282676 6.778171
Spine -27.438252 -5.408479 2.306211
Head 2.505810 5.783433 0.032340
LeftShoulder -8.365677 21.706162 10.935429
LeftArm 26.490874 20.286270 -51.336134
LeftForeArm 12.687308 -0.000000 41.736908
LeftHand -20.221956 -0.000000 -3.785836
LeftHandThumb1 -26.253704 0.000000 33.147579
RightShoulder -16.544512 0.212906 -24.561924
RightArm -45.182964 -32.356282 99.349984
RightForeArm -18.513691 -0.000000 10.269400
RightHand -4.595287 0.000000 32.344451
RightHandThumb1 -24.326973 -0.000000 -32.862282
LeftUpLeg -126.713668 10.040188 -20.768523
LeftLeg 109.441642 -0.000000 -0.000000
LeftFoot -18.311817 -8.029219 -1.696522
LeftToeBase 4.768856 -0.000000 -0.000000
RightUpLeg 4.815609 16.449735 -17.023379
RightLeg 132.653709 -0.000000 -0.000000
RightFoot 40.819794 -3.726463 4.539747
RightToeBase 24.147038 -0.000000 -0.000000
3469
root -2.737333 14.615221 1.729818 31.417332 -15.318959 6.761738
Spine -27.566365 -5.225080 2.138993
Head 2.799734 5.615392 0.142826
LeftShoulder -8.682461 21.751420 10.745806
LeftArm 26.129311 20.831129 -52.054284
LeftForeArm 12.618487 -0.000000 41.582263
LeftHand -20.261948 -0.000000 -3.883212
LeftHandThumb1 -26.253704 0.000000 33.147579
RightShoulder -16.647575 0.107375 -24.591431
RightArm -45.245301 -32.263333 99.293125
RightForeArm -18.454725 -0.000000 10.307859
RightHand -4.934629 -0.000000 32.312525
RightHandThumb1 -24.326973 -0.000000 -32.862282
LeftUpLeg -126.666105 10.176693 -20.699179
LeftLeg 109.528142 -0.000000 -0.000000
LeftFoot -18.220968 -8.293293 -2.067234
LeftToeBase 4.796417 -0.000000 -0.000000
RightUpLeg 4.949051 16.588207 -16.948095
RightLeg 132.691539 -0.000000 -0.000000
RightFoot 40.814928 -3.434626 4.442773
RightToeBase 24.140542 -0.000000 -0.000000
3470
root -2.758557 14.604399 1.743237 31.345683 -15.287870 6.690692
Spine -27.673509 -5.058604 2.044317
Head 3.045980 5.449343 0.233437
LeftShoulder -9.003659 21.956044 10.507623
LeftArm 25.908434 21.328642 -52.660858
LeftForeArm 12.354398 -0.000000 41.439377
LeftHand -20.668819 -0.000000 -3.402594
LeftHandThumb1 -26.253704 0.000000 33.147579
RightShoulder -16.760313 0.021343 -24.633948
RightArm -45.305474 -32.149005 99.227611
RightForeArm -18.527714 -0.000000 10.340416
RightHand -4.674074 -0.000000 32.854011
RightHandThumb1 -24.326973 -0.000000 -32.862282
LeftUpLeg -126.620774 10.275810 -20.580738
LeftLeg 109.599407 -0.000000 -0.000000
LeftFoot -18.554095 -8.005285 -1.691992
LeftToeBase 6.041813 -0.000000 -0.000000
RightUpLeg 5.097123 16.648842 -16.760800
RightLeg 132.717592 -0.000000 -0.000000
RightFoot 40.816948 -3.395275 4.524584
RightToeBase 23.773877 -0.000000 -0.000000
3471
root -2.753404 14.599185 1.771758 31.186852 -15.396016 6.898214
Spine -27.801331 -4.942534 1.603819
Head 3.339790 5.292330 0.416816
LeftShoulder -9.314081 22.145801 10.291495
LeftArm 25.562024 21.829886 -53.268581
LeftForeArm 12.158072 -0.000000 41.358764
LeftHand -20.633464 -0.000000 -3.744646
LeftHandThumb1 -26.253704 0.000000 33.147579
RightShoulder -16.848467 0.033404 -24.669658
RightArm -45.505756 -31.988917 99.208971
RightForeArm -18.684921 -0.000000 10.404038
RightHand -4.925945 -0.000000 32.972230
RightHandThumb1 -24.326973 -0.000000 -32.862282
LeftUpLeg -126.469276 10.297975 -20.737533
LeftLeg 109.698915 -0.000000 -0.000000
LeftFoot -18.689046 -7.989105 -1.907538
LeftToeBase 6.481916 -0.000000 -0.000000
RightUpLeg 5.292421 16.763691 -16.978123
RightLeg 132.653763 -0.000000 -0.000000
RightFoot 40.812750 -3.253679 4.357989
RightToeBase 23.759902 -0.000000 -0.000000
3472
root -2.775864 14.586945 1.784105 31.137019 -15.338452 6.807445
Spine -27.926787 -4.819663 1.556749
Head 3.543347 5.142910 0.512104
LeftShoulder -9.639470 22.275550 10.078355
LeftArm 25.175457 22.461189 -53.966226
LeftForeArm 11.633974 0.000000 41.197174
LeftHand -20.893576 0.000000 -2.957324
LeftHandThumb1 -26.253704 0.000000 33.147579
RightShoulder -16.978880 -0.059003 -24.770278
RightArm -45.566888 -32.014171 99.258674
RightForeArm -18.988930 -0.000000 10.437871
RightHand -4.590184 -0.000000 33.565917
RightHandThumb1 -24.326973 -0.000000 -32.862282
LeftUpLeg -126.436646 10.378632 -20.622907
LeftLeg 109.768989 -0.000000 -0.000000
LeftFoot -18.769830 -8.008651 -2.065424
LeftToeBase 6.746656 -0.000000 -0.000000
RightUpLeg 5.427417 16.789424 -16.772761
RightLeg 132.626580 -0.000000 -0.000000
RightFoot 40.801462 -3.324353 4.373955
RightToeBase 23.718986 -0.000000 -0.000000
3473
root -2.798496 14.575547 1.799205 31.093976 -15.297234 6.729575
Spine -28.072410 -4.689348 1.485902
Head 3.725229 4.985293 0.579148
LeftShoulder -10.038539 22.493242 9.768210
LeftArm 24.847448 22.977699 -54.547998
LeftForeArm 11.486429 -0.000000 41.081274
LeftHand -21.083250 -0.000000 -2.766593
LeftHandThumb1 -26.253704 0.000000 33.147579
RightShoulder -17.094870 -0.202971 -24.833407
RightArm -45.583474 -32.002749 99.242065
RightForeArm -19.194593 -0.000000 10.486596
RightHand -4.543925 -0.000000 33.785429
RightHandThumb1 -24.326973 -0.000000 -32.862282
LeftUpLeg -126.411245 10.443922 -20.533850
LeftLeg 109.847130 -0.000000 -0.000000
LeftFoot -18.842239 -7.911122 -2.174380
LeftToeBase 6.826041 -0.000000 -0.000000
RightUpLeg 5.568675 16.846514 -16.559256
RightLeg 132.582516 -0.000000 -0.000000
RightFoot 40.772121 -3.393168 4.433071
RightToeBase 23.723053 -0.000000 -0.000000
3474
root -2.818071 14.562610 1.817012 31.026534 -15.272338 6.692155
Spine -28.216148 -4.558734 1.346061
Head 3.922815 4.794829 0.684780
LeftShoulder -10.389585 22.636995 9.484879
LeftArm 24.391606 23.472337 -55.169008
LeftForeArm 11.259371 -0.000000 40.935406
LeftHand -21.212189 -0.000000 -2.621753
LeftHandThumb1 -26.253704 0.000000 33.147579
RightShoulder -17.212766 -0.332265 -24.883420
RightArm -45.622889 -31.970217 99.222692
RightForeArm -19.395776 -0.000000 10.523616
RightHand -4.530382 0.000000 34.001404
RightHandThumb1 -24.326973 -0.000000 -32.862282
LeftUpLeg -126.370929 10.547028 -20.429328
LeftLeg 109.942011 -0.000000 -0.000000
LeftFoot -18.938673 -8.076946 -2.405491
LeftToeBase 7.277446 -0.000000 -0.000000
RightUpLeg 5.730935 16.902858 -16.409299
RightLeg 132.510015 -0.000000 -0.000000
RightFoot 40.781136 -3.462282 4.474211
RightToeBase 23.761433 -0.000000 -0.000000
3475
root -2.835641 14.548623 1.837705 30.957667 -15.300326 6.654426
Spine -28.354958 -4.374344 1.161308
Head 4.085592 4.602817 0.812342
LeftShoulder -10.759146 22.865118 9.205105
LeftArm 23.969457 23.937622 -55.792415
LeftForeArm 10.882154 -0.000000 40.825925
LeftHand -20.904507 -0.000000 -3.450767
LeftHandThumb1 -26.253704 0.000000 33.147579
RightShoulder -17.336303 -0.311310 -24.957710
RightArm -45.844594 -31.889654 99.266992
RightForeArm -19.577284 -0.000000 10.551207
RightHand -4.529101 -0.000000 34.210848
RightHandThumb1 -24.326973 -0.000000 -32.862282
LeftUpLeg -126.369424 10.695326 -20.384917
LeftLeg 110.068838 -0.000000 -0.000000
LeftFoot -18.777350 -8.474555 -3.013714
LeftToeBase 7.085997 -0.000000 -0.000000
RightUpLeg 5.882740 17.020870 -16.308848
RightLeg 132.433934 -0.000000 -0.000000
RightFoot 40.769724 -3.400798 4.470174
RightToeBase 23.624759 -0.000000 -0.000000
3476
root -2.857221 14.533452 1.856550 30.890082 -15.306148 6.584773
Spine -28.471812 -4.208192 1.013440
Head 4.239899 4.403502 0.934268
LeftShoulder -11.128959 23.051376 8.930623
LeftArm 23.532444 24.489512 -56.407558
LeftForeArm 11.051104 -0.000000 40.652552
LeftHand -20.808525 -0.000000 -3.667569
LeftHandThumb1 -26.253704 0.000000 33.147579
RightShoulder -17.462461 -0.396627 -25.003710
RightArm -45.923207 -31.858768 99.278079
RightForeArm -19.682720 0.000000 10.546315
RightHand -4.676513 -0.000000 34.369922
RightHandThumb1 -24.326973 -0.000000 -32.862282
LeftUpLeg -126.367234 10.828793 -20.307973
LeftLeg 110.212180 -0.000000 -0.000000
LeftFoot -18.972189 -8.458594 -2.821535
LeftToeBase 7.994417 -0.000000 -0.000000
RightUpLeg 6.046161 17.136703 -16.138209
RightLeg 132.357817 -0.000000 -0.000000
RightFoot 40.747775 -3.353917 4.470782
RightToeBase 23.564135 -0.000000 -0.000000
3477
root -2.865379 14.521884 1.875033 30.841186 -15.341994 6.618992
Spine -28.645811 -4.067521 0.760620
Head 4.387371 4.213110 1.071312
LeftShoulder -11.524045 23.252105 8.624392
LeftArm 23.124530 24.992561 -56.973843
LeftForeArm 10.956671 -0.000000 40.411405
LeftHand -20.950649 -0.000000 -3.683242
LeftHandThumb1 -26.253704 0.000000 33.147579
RightShoulder -17.570183 -0.482729 -25.041698
RightArm -46.020501 -31.800990 99.299658
RightForeArm -19.926451 -0.000000 10.547440
RightHand -4.546132 -0.000000 34.435138
RightHandThumb1 -24.326973 -0.000000 -32.862282
LeftUpLeg -126.337807 10.872650 -20.324068
LeftLeg 110.297584 -0.000000 -0.000000
LeftFoot -19.088860 -8.320918 -2.794751
LeftToeBase 7.879855 -0.000000 -0.000000
RightUpLeg 6.162560 17.262621 -16.142625
RightLeg 132.263970 -0.000000 -0.000000
RightFoot 40.729594 -3.305985 4.484817
RightToeBase 23.540398 -0.000000 -0.000000
